<svg xmlns="http://www.w3.org/2000/svg" xmlns:xlink="http://www.w3.org/1999/xlink" width="500" zoomAndPan="magnify" viewBox="0 0 375 374.999991" height="500" preserveAspectRatio="xMidYMid meet" version="1.0"><metadata><ContainsAiGeneratedContent>Yes</ContainsAiGeneratedContent></metadata><defs><g/></defs><g fill="#ff9f1c" fill-opacity="1"><g transform="translate(42.195218, 155.489162)"><g><path d="M 28.9375 1.234375 C 24.0625 1.234375 19.703125 0.207031 15.859375 -1.84375 C 12.015625 -3.90625 8.976562 -7.117188 6.75 -11.484375 C 4.519531 -15.847656 3.40625 -21.460938 3.40625 -28.328125 C 3.40625 -34.578125 4.484375 -40.53125 6.640625 -46.1875 C 8.804688 -51.851562 11.773438 -56.882812 15.546875 -61.28125 C 19.328125 -65.675781 23.632812 -69.144531 28.46875 -71.6875 C 33.3125 -74.226562 38.378906 -75.5 43.671875 -75.5 C 50.191406 -75.5 55.082031 -74.160156 58.34375 -71.484375 C 61.601562 -68.804688 63.234375 -65.234375 63.234375 -60.765625 C 63.234375 -57.742188 62.648438 -54.960938 61.484375 -52.421875 C 60.316406 -49.878906 58.789062 -47.664062 56.90625 -45.78125 C 55.019531 -43.894531 53.007812 -42.4375 50.875 -41.40625 C 48.75 -40.375 46.726562 -39.859375 44.8125 -39.859375 C 43.363281 -39.859375 42.296875 -40.285156 41.609375 -41.140625 C 40.921875 -42.003906 40.851562 -42.984375 41.40625 -44.078125 C 44.082031 -49.160156 44.988281 -52.832031 44.125 -55.09375 C 43.269531 -57.363281 41.398438 -58.5 38.515625 -58.5 C 35.429688 -58.5 32.632812 -57.535156 30.125 -55.609375 C 27.625 -53.691406 25.648438 -51.203125 24.203125 -48.140625 C 22.765625 -45.085938 22.046875 -41.847656 22.046875 -38.421875 C 22.046875 -35.328125 22.78125 -32.507812 24.25 -29.96875 C 25.726562 -27.425781 27.960938 -25.382812 30.953125 -23.84375 C 33.941406 -22.300781 37.703125 -21.53125 42.234375 -21.53125 C 45.460938 -21.53125 48.738281 -22.007812 52.0625 -22.96875 C 55.394531 -23.925781 57.921875 -25.675781 59.640625 -28.21875 C 60.191406 -29.039062 60.894531 -29.332031 61.75 -29.09375 C 62.601562 -28.851562 63.320312 -28.390625 63.90625 -27.703125 C 64.488281 -27.015625 64.609375 -26.328125 64.265625 -25.640625 C 59.941406 -16.921875 54.960938 -10.257812 49.328125 -5.65625 C 43.703125 -1.0625 36.90625 1.234375 28.9375 1.234375 Z M 28.9375 1.234375 "/></g></g></g><g fill="#ff9f1c" fill-opacity="1"><g transform="translate(99.461049, 155.489162)"><g><path d="M 43.046875 -28.21875 C 43.597656 -29.039062 44.320312 -29.332031 45.21875 -29.09375 C 46.113281 -28.851562 46.851562 -28.390625 47.4375 -27.703125 C 48.019531 -27.015625 48.101562 -26.328125 47.6875 -25.640625 C 47 -24.546875 46.175781 -22.953125 45.21875 -20.859375 C 44.257812 -18.765625 43.109375 -16.53125 41.765625 -14.15625 C 40.429688 -11.789062 38.867188 -9.523438 37.078125 -7.359375 C 35.296875 -5.203125 33.285156 -3.4375 31.046875 -2.0625 C 28.816406 -0.6875 26.296875 0 23.484375 0 C 20.671875 0 18.4375 -0.53125 16.78125 -1.59375 C 15.132812 -2.65625 13.953125 -4.023438 13.234375 -5.703125 C 12.515625 -7.390625 12.15625 -9.09375 12.15625 -10.8125 C 12.15625 -13.21875 12.515625 -15.585938 13.234375 -17.921875 C 13.953125 -20.253906 14.789062 -22.484375 15.75 -24.609375 C 16.71875 -26.742188 17.5625 -28.703125 18.28125 -30.484375 C 19 -32.273438 19.359375 -33.785156 19.359375 -35.015625 C 19.359375 -35.566406 18.960938 -36.375 18.171875 -37.4375 C 17.390625 -38.5 15.96875 -39.410156 13.90625 -40.171875 C 13.289062 -38.796875 12.550781 -37.195312 11.6875 -35.375 C 10.832031 -33.5625 9.972656 -31.773438 9.109375 -30.015625 C 8.253906 -28.265625 7.550781 -26.804688 7 -25.640625 C 6.59375 -24.753906 5.925781 -24.429688 5 -24.671875 C 4.070312 -24.910156 3.296875 -25.40625 2.671875 -26.15625 C 2.054688 -26.914062 1.957031 -27.601562 2.375 -28.21875 C 3.332031 -29.59375 4.394531 -31.601562 5.5625 -34.25 C 6.726562 -36.894531 7.757812 -39.382812 8.65625 -41.71875 C 7.625 -42.0625 6.796875 -42.644531 6.171875 -43.46875 C 5.554688 -44.289062 5.25 -45.628906 5.25 -47.484375 C 5.25 -48.921875 5.625 -50.34375 6.375 -51.75 C 7.132812 -53.164062 8.203125 -54.351562 9.578125 -55.3125 C 10.953125 -56.269531 12.566406 -56.75 14.421875 -56.75 C 17.648438 -56.75 20.753906 -56.128906 23.734375 -54.890625 C 26.722656 -53.660156 29.175781 -52.097656 31.09375 -50.203125 C 33.019531 -48.316406 33.984375 -46.445312 33.984375 -44.59375 C 33.984375 -42.675781 33.625 -40.859375 32.90625 -39.140625 C 32.1875 -37.421875 31.445312 -35.664062 30.6875 -33.875 C 29.9375 -32.09375 29.5625 -30.140625 29.5625 -28.015625 C 29.5625 -26.578125 30.039062 -25.375 31 -24.40625 C 31.957031 -23.445312 33.609375 -22.96875 35.953125 -22.96875 C 37.523438 -22.96875 38.84375 -23.460938 39.90625 -24.453125 C 40.976562 -25.453125 42.023438 -26.707031 43.046875 -28.21875 Z M 43.046875 -28.21875 "/></g></g></g><g fill="#ff9f1c" fill-opacity="1"><g transform="translate(140.144507, 155.489162)"><g><path d="M 10.921875 0 C 7.421875 0 4.773438 -1.441406 2.984375 -4.328125 C 1.203125 -7.210938 0.3125 -10.953125 0.3125 -15.546875 C 0.3125 -18.429688 0.671875 -21.503906 1.390625 -24.765625 C 2.109375 -28.023438 3.171875 -31.234375 4.578125 -34.390625 C 5.984375 -37.554688 7.75 -40.425781 9.875 -43 C 12.007812 -45.570312 14.484375 -47.628906 17.296875 -49.171875 C 20.117188 -50.722656 23.316406 -51.5 26.890625 -51.5 C 28.941406 -51.5 30.535156 -51.304688 31.671875 -50.921875 C 32.804688 -50.546875 33.664062 -50.082031 34.25 -49.53125 C 34.832031 -48.988281 35.328125 -48.53125 35.734375 -48.15625 C 36.148438 -47.78125 36.703125 -47.59375 37.390625 -47.59375 C 38.554688 -47.59375 39.5 -47.914062 40.21875 -48.5625 C 40.9375 -49.21875 41.742188 -49.867188 42.640625 -50.515625 C 43.535156 -51.171875 44.769531 -51.5 46.34375 -51.5 C 47.71875 -51.5 48.660156 -51.15625 49.171875 -50.46875 C 49.691406 -49.78125 49.953125 -48.851562 49.953125 -47.6875 C 49.953125 -45.769531 49.421875 -43.863281 48.359375 -41.96875 C 47.296875 -40.082031 46.179688 -37.628906 45.015625 -34.609375 C 43.296875 -30.828125 42.660156 -27.941406 43.109375 -25.953125 C 43.554688 -23.960938 44.910156 -22.96875 47.171875 -22.96875 C 48.960938 -22.96875 50.507812 -23.429688 51.8125 -24.359375 C 53.113281 -25.285156 54.28125 -26.570312 55.3125 -28.21875 C 55.863281 -29.039062 56.566406 -29.332031 57.421875 -29.09375 C 58.273438 -28.851562 58.992188 -28.390625 59.578125 -27.703125 C 60.171875 -27.015625 60.296875 -26.328125 59.953125 -25.640625 C 58.710938 -23.242188 57.390625 -20.582031 55.984375 -17.65625 C 54.578125 -14.738281 53.015625 -11.941406 51.296875 -9.265625 C 49.578125 -6.585938 47.617188 -4.375 45.421875 -2.625 C 43.222656 -0.875 40.679688 0 37.796875 0 C 34.222656 0 31.695312 -1.441406 30.21875 -4.328125 C 28.75 -7.210938 28.320312 -10.78125 28.9375 -15.03125 L 28.53125 -15.03125 C 26.46875 -10.84375 23.925781 -7.289062 20.90625 -4.375 C 17.882812 -1.457031 14.554688 0 10.921875 0 Z M 21.21875 -21.328125 C 23 -21.328125 24.554688 -21.835938 25.890625 -22.859375 C 27.234375 -23.890625 28.28125 -25.144531 29.03125 -26.625 C 29.789062 -28.101562 30.171875 -29.5625 30.171875 -31 C 30.171875 -32.71875 29.691406 -34.054688 28.734375 -35.015625 C 27.773438 -35.984375 26.472656 -36.46875 24.828125 -36.46875 C 23.035156 -36.46875 21.488281 -35.984375 20.1875 -35.015625 C 18.882812 -34.054688 17.867188 -32.835938 17.140625 -31.359375 C 16.421875 -29.890625 16.0625 -28.398438 16.0625 -26.890625 C 16.0625 -25.171875 16.523438 -23.8125 17.453125 -22.8125 C 18.378906 -21.820312 19.632812 -21.328125 21.21875 -21.328125 Z M 21.21875 -21.328125 "/></g></g></g><g fill="#ff9f1c" fill-opacity="1"><g transform="translate(193.084506, 155.489162)"><g><path d="M 2.890625 0.203125 C 1.578125 0.203125 0.921875 -1.164062 0.921875 -3.90625 C 0.921875 -6.445312 1.570312 -8.832031 2.875 -11.0625 C 4.1875 -13.300781 5.867188 -15.378906 7.921875 -17.296875 C 9.984375 -19.222656 12.164062 -21.007812 14.46875 -22.65625 C 16.769531 -24.300781 18.953125 -25.828125 21.015625 -27.234375 C 23.078125 -28.648438 24.757812 -29.941406 26.0625 -31.109375 C 27.363281 -32.273438 28.015625 -33.304688 28.015625 -34.203125 C 28.015625 -36.117188 26.398438 -37.078125 23.171875 -37.078125 C 19.804688 -37.078125 16.835938 -36.113281 14.265625 -34.1875 C 11.691406 -32.269531 9.269531 -29.421875 7 -25.640625 L 2.375 -28.21875 C 4.15625 -31.175781 5.660156 -34.300781 6.890625 -37.59375 C 8.128906 -40.882812 9.265625 -44.832031 10.296875 -49.4375 C 10.921875 -51.90625 12.054688 -53.140625 13.703125 -53.140625 C 14.796875 -53.140625 15.566406 -52.953125 16.015625 -52.578125 C 16.460938 -52.203125 16.769531 -51.773438 16.9375 -51.296875 C 17.113281 -50.816406 17.335938 -50.382812 17.609375 -50 C 17.890625 -49.625 18.441406 -49.4375 19.265625 -49.4375 C 20.085938 -49.4375 20.859375 -49.609375 21.578125 -49.953125 C 22.296875 -50.296875 23.1875 -50.640625 24.25 -50.984375 C 25.320312 -51.328125 26.710938 -51.5 28.421875 -51.5 C 30.898438 -51.5 33.015625 -51.289062 34.765625 -50.875 C 36.515625 -50.46875 38.296875 -50.226562 40.109375 -50.15625 C 41.929688 -50.09375 44.148438 -50.539062 46.765625 -51.5 C 47.316406 -51.707031 47.8125 -51.601562 48.25 -51.1875 C 48.695312 -50.78125 48.851562 -50.300781 48.71875 -49.75 C 48.164062 -46.175781 47.03125 -43.066406 45.3125 -40.421875 C 43.601562 -37.785156 41.628906 -35.539062 39.390625 -33.6875 C 37.160156 -31.832031 35 -30.234375 32.90625 -28.890625 C 30.8125 -27.554688 29.078125 -26.40625 27.703125 -25.4375 C 26.328125 -24.476562 25.640625 -23.550781 25.640625 -22.65625 C 25.640625 -20.9375 28.078125 -20.078125 32.953125 -20.078125 C 36.179688 -20.078125 39.21875 -20.847656 42.0625 -22.390625 C 44.914062 -23.941406 47.132812 -25.882812 48.71875 -28.21875 C 49.8125 -29.800781 50.820312 -30.554688 51.75 -30.484375 C 52.675781 -30.421875 53.328125 -29.90625 53.703125 -28.9375 C 54.085938 -27.976562 53.972656 -26.878906 53.359375 -25.640625 C 52.734375 -24.410156 51.867188 -22.75 50.765625 -20.65625 C 49.671875 -18.5625 48.332031 -16.328125 46.75 -13.953125 C 45.175781 -11.585938 43.34375 -9.335938 41.25 -7.203125 C 39.15625 -5.078125 36.785156 -3.34375 34.140625 -2 C 31.492188 -0.664062 28.59375 0 25.4375 0 C 23.101562 0 21.351562 -0.253906 20.1875 -0.765625 C 19.019531 -1.285156 18.109375 -1.890625 17.453125 -2.578125 C 16.804688 -3.265625 16.140625 -3.863281 15.453125 -4.375 C 14.765625 -4.894531 13.800781 -5.15625 12.5625 -5.15625 C 10.84375 -5.15625 9.570312 -4.878906 8.75 -4.328125 C 7.925781 -3.773438 7.289062 -3.15625 6.84375 -2.46875 C 6.40625 -1.78125 5.925781 -1.160156 5.40625 -0.609375 C 4.894531 -0.0664062 4.054688 0.203125 2.890625 0.203125 Z M 2.890625 0.203125 "/></g></g></g><g fill="#ff9f1c" fill-opacity="1"><g transform="translate(239.432754, 155.489162)"><g><path d="M 53.5625 -28.21875 C 53.96875 -28.84375 54.617188 -29.066406 55.515625 -28.890625 C 56.410156 -28.722656 57.179688 -28.347656 57.828125 -27.765625 C 58.484375 -27.179688 58.601562 -26.472656 58.1875 -25.640625 C 56.675781 -22.484375 55.21875 -19.394531 53.8125 -16.375 C 52.40625 -13.351562 50.910156 -10.601562 49.328125 -8.125 C 47.753906 -5.65625 46.003906 -3.679688 44.078125 -2.203125 C 42.160156 -0.734375 39.960938 0 37.484375 0 C 35.972656 0 34.773438 -0.753906 33.890625 -2.265625 C 31.691406 4.804688 29.390625 10.46875 26.984375 14.71875 C 24.578125 18.976562 21.894531 22.070312 18.9375 24 C 15.988281 25.925781 12.59375 26.890625 8.75 26.890625 C 3.332031 26.890625 -0.867188 25.460938 -3.859375 22.609375 C -6.847656 19.753906 -8.34375 15.859375 -8.34375 10.921875 C -8.34375 8.304688 -7.960938 6.054688 -7.203125 4.171875 C -6.453125 2.285156 -5.59375 0.796875 -4.625 -0.296875 C -3.664062 -1.398438 -2.804688 -2.109375 -2.046875 -2.421875 C -1.296875 -2.734375 -0.890625 -2.613281 -0.828125 -2.0625 C -0.546875 0.476562 0.519531 2.570312 2.375 4.21875 C 4.226562 5.863281 6.734375 6.65625 9.890625 6.59375 C 12.910156 6.519531 15.707031 5.640625 18.28125 3.953125 C 20.851562 2.273438 22.976562 0.03125 24.65625 -2.78125 C 26.34375 -5.59375 27.359375 -8.648438 27.703125 -11.953125 C 27.835938 -13.117188 27.523438 -13.769531 26.765625 -13.90625 C 26.015625 -14.039062 25.367188 -13.457031 24.828125 -12.15625 C 23.453125 -8.71875 21.523438 -6.003906 19.046875 -4.015625 C 16.578125 -2.023438 13.660156 -1.03125 10.296875 -1.03125 C 7.554688 -1.03125 5.171875 -1.9375 3.140625 -3.75 C 1.117188 -5.570312 0.109375 -8.441406 0.109375 -12.359375 C 0.109375 -13.941406 0.226562 -16.140625 0.46875 -18.953125 C 0.707031 -21.765625 1.34375 -24.851562 2.375 -28.21875 C 4.769531 -35.769531 7.1875 -41.535156 9.625 -45.515625 C 12.0625 -49.503906 14.722656 -51.5 17.609375 -51.5 C 19.742188 -51.5 20.8125 -50.125 20.8125 -47.375 C 20.8125 -45.175781 20.414062 -42.941406 19.625 -40.671875 C 18.832031 -38.410156 18.054688 -36.195312 17.296875 -34.03125 C 16.546875 -31.875 16.171875 -29.765625 16.171875 -27.703125 C 16.171875 -26.265625 16.460938 -25.132812 17.046875 -24.3125 C 17.628906 -23.488281 18.78125 -23.078125 20.5 -23.078125 C 22.757812 -23.078125 24.578125 -23.742188 25.953125 -25.078125 C 27.328125 -26.421875 28.425781 -28.289062 29.25 -30.6875 C 31.375 -37.414062 33.535156 -42.566406 35.734375 -46.140625 C 37.929688 -49.710938 40.335938 -51.5 42.953125 -51.5 C 44.460938 -51.5 45.613281 -51.15625 46.40625 -50.46875 C 47.195312 -49.78125 47.59375 -48.613281 47.59375 -46.96875 C 47.59375 -44.84375 46.921875 -42.285156 45.578125 -39.296875 C 44.234375 -36.304688 42.671875 -32.203125 40.890625 -26.984375 C 40.066406 -24.097656 40.015625 -22.085938 40.734375 -20.953125 C 41.453125 -19.828125 42.394531 -19.265625 43.5625 -19.265625 C 45.144531 -19.265625 46.828125 -20.222656 48.609375 -22.140625 C 50.398438 -24.066406 52.050781 -26.09375 53.5625 -28.21875 Z M 53.5625 -28.21875 "/></g></g></g><g fill="#ffffff" fill-opacity="1"><g transform="translate(37.605471, 152.39334)"><g><path d="M 28.9375 1.234375 C 24.0625 1.234375 19.703125 0.207031 15.859375 -1.84375 C 12.015625 -3.90625 8.976562 -7.117188 6.75 -11.484375 C 4.519531 -15.847656 3.40625 -21.460938 3.40625 -28.328125 C 3.40625 -34.578125 4.484375 -40.53125 6.640625 -46.1875 C 8.804688 -51.851562 11.773438 -56.882812 15.546875 -61.28125 C 19.328125 -65.675781 23.632812 -69.144531 28.46875 -71.6875 C 33.3125 -74.226562 38.378906 -75.5 43.671875 -75.5 C 50.191406 -75.5 55.082031 -74.160156 58.34375 -71.484375 C 61.601562 -68.804688 63.234375 -65.234375 63.234375 -60.765625 C 63.234375 -57.742188 62.648438 -54.960938 61.484375 -52.421875 C 60.316406 -49.878906 58.789062 -47.664062 56.90625 -45.78125 C 55.019531 -43.894531 53.007812 -42.4375 50.875 -41.40625 C 48.75 -40.375 46.726562 -39.859375 44.8125 -39.859375 C 43.363281 -39.859375 42.296875 -40.285156 41.609375 -41.140625 C 40.921875 -42.003906 40.851562 -42.984375 41.40625 -44.078125 C 44.082031 -49.160156 44.988281 -52.832031 44.125 -55.09375 C 43.269531 -57.363281 41.398438 -58.5 38.515625 -58.5 C 35.429688 -58.5 32.632812 -57.535156 30.125 -55.609375 C 27.625 -53.691406 25.648438 -51.203125 24.203125 -48.140625 C 22.765625 -45.085938 22.046875 -41.847656 22.046875 -38.421875 C 22.046875 -35.328125 22.78125 -32.507812 24.25 -29.96875 C 25.726562 -27.425781 27.960938 -25.382812 30.953125 -23.84375 C 33.941406 -22.300781 37.703125 -21.53125 42.234375 -21.53125 C 45.460938 -21.53125 48.738281 -22.007812 52.0625 -22.96875 C 55.394531 -23.925781 57.921875 -25.675781 59.640625 -28.21875 C 60.191406 -29.039062 60.894531 -29.332031 61.75 -29.09375 C 62.601562 -28.851562 63.320312 -28.390625 63.90625 -27.703125 C 64.488281 -27.015625 64.609375 -26.328125 64.265625 -25.640625 C 59.941406 -16.921875 54.960938 -10.257812 49.328125 -5.65625 C 43.703125 -1.0625 36.90625 1.234375 28.9375 1.234375 Z M 28.9375 1.234375 "/></g></g></g><g fill="#ffffff" fill-opacity="1"><g transform="translate(94.871302, 152.39334)"><g><path d="M 43.046875 -28.21875 C 43.597656 -29.039062 44.320312 -29.332031 45.21875 -29.09375 C 46.113281 -28.851562 46.851562 -28.390625 47.4375 -27.703125 C 48.019531 -27.015625 48.101562 -26.328125 47.6875 -25.640625 C 47 -24.546875 46.175781 -22.953125 45.21875 -20.859375 C 44.257812 -18.765625 43.109375 -16.53125 41.765625 -14.15625 C 40.429688 -11.789062 38.867188 -9.523438 37.078125 -7.359375 C 35.296875 -5.203125 33.285156 -3.4375 31.046875 -2.0625 C 28.816406 -0.6875 26.296875 0 23.484375 0 C 20.671875 0 18.4375 -0.53125 16.78125 -1.59375 C 15.132812 -2.65625 13.953125 -4.023438 13.234375 -5.703125 C 12.515625 -7.390625 12.15625 -9.09375 12.15625 -10.8125 C 12.15625 -13.21875 12.515625 -15.585938 13.234375 -17.921875 C 13.953125 -20.253906 14.789062 -22.484375 15.75 -24.609375 C 16.71875 -26.742188 17.5625 -28.703125 18.28125 -30.484375 C 19 -32.273438 19.359375 -33.785156 19.359375 -35.015625 C 19.359375 -35.566406 18.960938 -36.375 18.171875 -37.4375 C 17.390625 -38.5 15.96875 -39.410156 13.90625 -40.171875 C 13.289062 -38.796875 12.550781 -37.195312 11.6875 -35.375 C 10.832031 -33.5625 9.972656 -31.773438 9.109375 -30.015625 C 8.253906 -28.265625 7.550781 -26.804688 7 -25.640625 C 6.59375 -24.753906 5.925781 -24.429688 5 -24.671875 C 4.070312 -24.910156 3.296875 -25.40625 2.671875 -26.15625 C 2.054688 -26.914062 1.957031 -27.601562 2.375 -28.21875 C 3.332031 -29.59375 4.394531 -31.601562 5.5625 -34.25 C 6.726562 -36.894531 7.757812 -39.382812 8.65625 -41.71875 C 7.625 -42.0625 6.796875 -42.644531 6.171875 -43.46875 C 5.554688 -44.289062 5.25 -45.628906 5.25 -47.484375 C 5.25 -48.921875 5.625 -50.34375 6.375 -51.75 C 7.132812 -53.164062 8.203125 -54.351562 9.578125 -55.3125 C 10.953125 -56.269531 12.566406 -56.75 14.421875 -56.75 C 17.648438 -56.75 20.753906 -56.128906 23.734375 -54.890625 C 26.722656 -53.660156 29.175781 -52.097656 31.09375 -50.203125 C 33.019531 -48.316406 33.984375 -46.445312 33.984375 -44.59375 C 33.984375 -42.675781 33.625 -40.859375 32.90625 -39.140625 C 32.1875 -37.421875 31.445312 -35.664062 30.6875 -33.875 C 29.9375 -32.09375 29.5625 -30.140625 29.5625 -28.015625 C 29.5625 -26.578125 30.039062 -25.375 31 -24.40625 C 31.957031 -23.445312 33.609375 -22.96875 35.953125 -22.96875 C 37.523438 -22.96875 38.84375 -23.460938 39.90625 -24.453125 C 40.976562 -25.453125 42.023438 -26.707031 43.046875 -28.21875 Z M 43.046875 -28.21875 "/></g></g></g><g fill="#ffffff" fill-opacity="1"><g transform="translate(135.554759, 152.39334)"><g><path d="M 10.921875 0 C 7.421875 0 4.773438 -1.441406 2.984375 -4.328125 C 1.203125 -7.210938 0.3125 -10.953125 0.3125 -15.546875 C 0.3125 -18.429688 0.671875 -21.503906 1.390625 -24.765625 C 2.109375 -28.023438 3.171875 -31.234375 4.578125 -34.390625 C 5.984375 -37.554688 7.75 -40.425781 9.875 -43 C 12.007812 -45.570312 14.484375 -47.628906 17.296875 -49.171875 C 20.117188 -50.722656 23.316406 -51.5 26.890625 -51.5 C 28.941406 -51.5 30.535156 -51.304688 31.671875 -50.921875 C 32.804688 -50.546875 33.664062 -50.082031 34.25 -49.53125 C 34.832031 -48.988281 35.328125 -48.53125 35.734375 -48.15625 C 36.148438 -47.78125 36.703125 -47.59375 37.390625 -47.59375 C 38.554688 -47.59375 39.5 -47.914062 40.21875 -48.5625 C 40.9375 -49.21875 41.742188 -49.867188 42.640625 -50.515625 C 43.535156 -51.171875 44.769531 -51.5 46.34375 -51.5 C 47.71875 -51.5 48.660156 -51.15625 49.171875 -50.46875 C 49.691406 -49.78125 49.953125 -48.851562 49.953125 -47.6875 C 49.953125 -45.769531 49.421875 -43.863281 48.359375 -41.96875 C 47.296875 -40.082031 46.179688 -37.628906 45.015625 -34.609375 C 43.296875 -30.828125 42.660156 -27.941406 43.109375 -25.953125 C 43.554688 -23.960938 44.910156 -22.96875 47.171875 -22.96875 C 48.960938 -22.96875 50.507812 -23.429688 51.8125 -24.359375 C 53.113281 -25.285156 54.28125 -26.570312 55.3125 -28.21875 C 55.863281 -29.039062 56.566406 -29.332031 57.421875 -29.09375 C 58.273438 -28.851562 58.992188 -28.390625 59.578125 -27.703125 C 60.171875 -27.015625 60.296875 -26.328125 59.953125 -25.640625 C 58.710938 -23.242188 57.390625 -20.582031 55.984375 -17.65625 C 54.578125 -14.738281 53.015625 -11.941406 51.296875 -9.265625 C 49.578125 -6.585938 47.617188 -4.375 45.421875 -2.625 C 43.222656 -0.875 40.679688 0 37.796875 0 C 34.222656 0 31.695312 -1.441406 30.21875 -4.328125 C 28.75 -7.210938 28.320312 -10.78125 28.9375 -15.03125 L 28.53125 -15.03125 C 26.46875 -10.84375 23.925781 -7.289062 20.90625 -4.375 C 17.882812 -1.457031 14.554688 0 10.921875 0 Z M 21.21875 -21.328125 C 23 -21.328125 24.554688 -21.835938 25.890625 -22.859375 C 27.234375 -23.890625 28.28125 -25.144531 29.03125 -26.625 C 29.789062 -28.101562 30.171875 -29.5625 30.171875 -31 C 30.171875 -32.71875 29.691406 -34.054688 28.734375 -35.015625 C 27.773438 -35.984375 26.472656 -36.46875 24.828125 -36.46875 C 23.035156 -36.46875 21.488281 -35.984375 20.1875 -35.015625 C 18.882812 -34.054688 17.867188 -32.835938 17.140625 -31.359375 C 16.421875 -29.890625 16.0625 -28.398438 16.0625 -26.890625 C 16.0625 -25.171875 16.523438 -23.8125 17.453125 -22.8125 C 18.378906 -21.820312 19.632812 -21.328125 21.21875 -21.328125 Z M 21.21875 -21.328125 "/></g></g></g><g fill="#ffffff" fill-opacity="1"><g transform="translate(188.494758, 152.39334)"><g><path d="M 2.890625 0.203125 C 1.578125 0.203125 0.921875 -1.164062 0.921875 -3.90625 C 0.921875 -6.445312 1.570312 -8.832031 2.875 -11.0625 C 4.1875 -13.300781 5.867188 -15.378906 7.921875 -17.296875 C 9.984375 -19.222656 12.164062 -21.007812 14.46875 -22.65625 C 16.769531 -24.300781 18.953125 -25.828125 21.015625 -27.234375 C 23.078125 -28.648438 24.757812 -29.941406 26.0625 -31.109375 C 27.363281 -32.273438 28.015625 -33.304688 28.015625 -34.203125 C 28.015625 -36.117188 26.398438 -37.078125 23.171875 -37.078125 C 19.804688 -37.078125 16.835938 -36.113281 14.265625 -34.1875 C 11.691406 -32.269531 9.269531 -29.421875 7 -25.640625 L 2.375 -28.21875 C 4.15625 -31.175781 5.660156 -34.300781 6.890625 -37.59375 C 8.128906 -40.882812 9.265625 -44.832031 10.296875 -49.4375 C 10.921875 -51.90625 12.054688 -53.140625 13.703125 -53.140625 C 14.796875 -53.140625 15.566406 -52.953125 16.015625 -52.578125 C 16.460938 -52.203125 16.769531 -51.773438 16.9375 -51.296875 C 17.113281 -50.816406 17.335938 -50.382812 17.609375 -50 C 17.890625 -49.625 18.441406 -49.4375 19.265625 -49.4375 C 20.085938 -49.4375 20.859375 -49.609375 21.578125 -49.953125 C 22.296875 -50.296875 23.1875 -50.640625 24.25 -50.984375 C 25.320312 -51.328125 26.710938 -51.5 28.421875 -51.5 C 30.898438 -51.5 33.015625 -51.289062 34.765625 -50.875 C 36.515625 -50.46875 38.296875 -50.226562 40.109375 -50.15625 C 41.929688 -50.09375 44.148438 -50.539062 46.765625 -51.5 C 47.316406 -51.707031 47.8125 -51.601562 48.25 -51.1875 C 48.695312 -50.78125 48.851562 -50.300781 48.71875 -49.75 C 48.164062 -46.175781 47.03125 -43.066406 45.3125 -40.421875 C 43.601562 -37.785156 41.628906 -35.539062 39.390625 -33.6875 C 37.160156 -31.832031 35 -30.234375 32.90625 -28.890625 C 30.8125 -27.554688 29.078125 -26.40625 27.703125 -25.4375 C 26.328125 -24.476562 25.640625 -23.550781 25.640625 -22.65625 C 25.640625 -20.9375 28.078125 -20.078125 32.953125 -20.078125 C 36.179688 -20.078125 39.21875 -20.847656 42.0625 -22.390625 C 44.914062 -23.941406 47.132812 -25.882812 48.71875 -28.21875 C 49.8125 -29.800781 50.820312 -30.554688 51.75 -30.484375 C 52.675781 -30.421875 53.328125 -29.90625 53.703125 -28.9375 C 54.085938 -27.976562 53.972656 -26.878906 53.359375 -25.640625 C 52.734375 -24.410156 51.867188 -22.75 50.765625 -20.65625 C 49.671875 -18.5625 48.332031 -16.328125 46.75 -13.953125 C 45.175781 -11.585938 43.34375 -9.335938 41.25 -7.203125 C 39.15625 -5.078125 36.785156 -3.34375 34.140625 -2 C 31.492188 -0.664062 28.59375 0 25.4375 0 C 23.101562 0 21.351562 -0.253906 20.1875 -0.765625 C 19.019531 -1.285156 18.109375 -1.890625 17.453125 -2.578125 C 16.804688 -3.265625 16.140625 -3.863281 15.453125 -4.375 C 14.765625 -4.894531 13.800781 -5.15625 12.5625 -5.15625 C 10.84375 -5.15625 9.570312 -4.878906 8.75 -4.328125 C 7.925781 -3.773438 7.289062 -3.15625 6.84375 -2.46875 C 6.40625 -1.78125 5.925781 -1.160156 5.40625 -0.609375 C 4.894531 -0.0664062 4.054688 0.203125 2.890625 0.203125 Z M 2.890625 0.203125 "/></g></g></g><g fill="#ffffff" fill-opacity="1"><g transform="translate(234.843006, 152.39334)"><g><path d="M 53.5625 -28.21875 C 53.96875 -28.84375 54.617188 -29.066406 55.515625 -28.890625 C 56.410156 -28.722656 57.179688 -28.347656 57.828125 -27.765625 C 58.484375 -27.179688 58.601562 -26.472656 58.1875 -25.640625 C 56.675781 -22.484375 55.21875 -19.394531 53.8125 -16.375 C 52.40625 -13.351562 50.910156 -10.601562 49.328125 -8.125 C 47.753906 -5.65625 46.003906 -3.679688 44.078125 -2.203125 C 42.160156 -0.734375 39.960938 0 37.484375 0 C 35.972656 0 34.773438 -0.753906 33.890625 -2.265625 C 31.691406 4.804688 29.390625 10.46875 26.984375 14.71875 C 24.578125 18.976562 21.894531 22.070312 18.9375 24 C 15.988281 25.925781 12.59375 26.890625 8.75 26.890625 C 3.332031 26.890625 -0.867188 25.460938 -3.859375 22.609375 C -6.847656 19.753906 -8.34375 15.859375 -8.34375 10.921875 C -8.34375 8.304688 -7.960938 6.054688 -7.203125 4.171875 C -6.453125 2.285156 -5.59375 0.796875 -4.625 -0.296875 C -3.664062 -1.398438 -2.804688 -2.109375 -2.046875 -2.421875 C -1.296875 -2.734375 -0.890625 -2.613281 -0.828125 -2.0625 C -0.546875 0.476562 0.519531 2.570312 2.375 4.21875 C 4.226562 5.863281 6.734375 6.65625 9.890625 6.59375 C 12.910156 6.519531 15.707031 5.640625 18.28125 3.953125 C 20.851562 2.273438 22.976562 0.03125 24.65625 -2.78125 C 26.34375 -5.59375 27.359375 -8.648438 27.703125 -11.953125 C 27.835938 -13.117188 27.523438 -13.769531 26.765625 -13.90625 C 26.015625 -14.039062 25.367188 -13.457031 24.828125 -12.15625 C 23.453125 -8.71875 21.523438 -6.003906 19.046875 -4.015625 C 16.578125 -2.023438 13.660156 -1.03125 10.296875 -1.03125 C 7.554688 -1.03125 5.171875 -1.9375 3.140625 -3.75 C 1.117188 -5.570312 0.109375 -8.441406 0.109375 -12.359375 C 0.109375 -13.941406 0.226562 -16.140625 0.46875 -18.953125 C 0.707031 -21.765625 1.34375 -24.851562 2.375 -28.21875 C 4.769531 -35.769531 7.1875 -41.535156 9.625 -45.515625 C 12.0625 -49.503906 14.722656 -51.5 17.609375 -51.5 C 19.742188 -51.5 20.8125 -50.125 20.8125 -47.375 C 20.8125 -45.175781 20.414062 -42.941406 19.625 -40.671875 C 18.832031 -38.410156 18.054688 -36.195312 17.296875 -34.03125 C 16.546875 -31.875 16.171875 -29.765625 16.171875 -27.703125 C 16.171875 -26.265625 16.460938 -25.132812 17.046875 -24.3125 C 17.628906 -23.488281 18.78125 -23.078125 20.5 -23.078125 C 22.757812 -23.078125 24.578125 -23.742188 25.953125 -25.078125 C 27.328125 -26.421875 28.425781 -28.289062 29.25 -30.6875 C 31.375 -37.414062 33.535156 -42.566406 35.734375 -46.140625 C 37.929688 -49.710938 40.335938 -51.5 42.953125 -51.5 C 44.460938 -51.5 45.613281 -51.15625 46.40625 -50.46875 C 47.195312 -49.78125 47.59375 -48.613281 47.59375 -46.96875 C 47.59375 -44.84375 46.921875 -42.285156 45.578125 -39.296875 C 44.234375 -36.304688 42.671875 -32.203125 40.890625 -26.984375 C 40.066406 -24.097656 40.015625 -22.085938 40.734375 -20.953125 C 41.453125 -19.828125 42.394531 -19.265625 43.5625 -19.265625 C 45.144531 -19.265625 46.828125 -20.222656 48.609375 -22.140625 C 50.398438 -24.066406 52.050781 -26.09375 53.5625 -28.21875 Z M 53.5625 -28.21875 "/></g></g></g><g fill="#ff9f1c" fill-opacity="1"><g transform="translate(61.028922, 251.626726)"><g><path d="M 23.375 4.328125 C 18.914062 4.328125 14.882812 3.414062 11.28125 1.59375 C 7.675781 -0.226562 4.828125 -2.941406 2.734375 -6.546875 C 0.640625 -10.148438 -0.40625 -14.59375 -0.40625 -19.875 C -0.40625 -23.925781 0.140625 -27.320312 1.234375 -30.0625 C 2.335938 -32.8125 3.742188 -35.023438 5.453125 -36.703125 C 7.171875 -38.390625 8.972656 -39.59375 10.859375 -40.3125 C 12.753906 -41.039062 14.457031 -41.40625 15.96875 -41.40625 C 17.269531 -41.40625 18.296875 -41.160156 19.046875 -40.671875 C 19.804688 -40.191406 20.1875 -39.578125 20.1875 -38.828125 C 20.1875 -38.066406 19.894531 -37.410156 19.3125 -36.859375 C 18.726562 -36.316406 18.125 -35.613281 17.5 -34.75 C 16.882812 -33.894531 16.578125 -32.507812 16.578125 -30.59375 C 16.578125 -27.84375 17.332031 -25.644531 18.84375 -24 C 20.351562 -22.351562 22.445312 -21.53125 25.125 -21.53125 C 27.59375 -21.53125 29.617188 -22.316406 31.203125 -23.890625 C 32.785156 -25.472656 33.578125 -27.535156 33.578125 -30.078125 C 33.578125 -32.066406 33.039062 -34.054688 31.96875 -36.046875 C 30.90625 -38.035156 29.703125 -40.144531 28.359375 -42.375 C 27.023438 -44.601562 25.828125 -47.003906 24.765625 -49.578125 C 23.703125 -52.160156 23.171875 -54.992188 23.171875 -58.078125 C 23.171875 -61.242188 23.875 -64.234375 25.28125 -67.046875 C 26.6875 -69.859375 28.863281 -72.15625 31.8125 -73.9375 C 34.769531 -75.726562 38.515625 -76.625 43.046875 -76.625 C 47.097656 -76.625 50.34375 -75.914062 52.78125 -74.5 C 55.21875 -73.09375 56.984375 -71.273438 58.078125 -69.046875 C 59.179688 -66.816406 59.734375 -64.46875 59.734375 -62 C 59.734375 -58.90625 58.90625 -56.019531 57.25 -53.34375 C 55.601562 -50.664062 53.375 -48.609375 50.5625 -47.171875 C 50.15625 -46.617188 49.503906 -46.515625 48.609375 -46.859375 C 47.710938 -47.203125 46.972656 -47.765625 46.390625 -48.546875 C 45.804688 -49.335938 45.753906 -50.046875 46.234375 -50.671875 C 46.710938 -51.285156 47.085938 -52.125 47.359375 -53.1875 C 47.640625 -54.25 47.691406 -55.347656 47.515625 -56.484375 C 47.347656 -57.617188 46.90625 -58.5625 46.1875 -59.3125 C 45.46875 -60.070312 44.382812 -60.453125 42.9375 -60.453125 C 41.226562 -60.453125 39.738281 -59.898438 38.46875 -58.796875 C 37.195312 -57.703125 36.5625 -55.851562 36.5625 -53.25 C 36.488281 -50.976562 37.085938 -48.675781 38.359375 -46.34375 C 39.628906 -44.007812 41.125 -41.585938 42.84375 -39.078125 C 44.5625 -36.578125 46.070312 -33.914062 47.375 -31.09375 C 48.675781 -28.28125 49.328125 -25.257812 49.328125 -22.03125 C 49.328125 -16.957031 48.210938 -12.425781 45.984375 -8.4375 C 43.753906 -4.457031 40.695312 -1.335938 36.8125 0.921875 C 32.9375 3.191406 28.457031 4.328125 23.375 4.328125 Z M 23.375 4.328125 "/></g></g></g><g fill="#ff9f1c" fill-opacity="1"><g transform="translate(114.368766, 251.626726)"><g><path d="M 51.390625 -28.21875 C 51.796875 -28.832031 52.445312 -29.050781 53.34375 -28.875 C 54.238281 -28.707031 55.007812 -28.332031 55.65625 -27.75 C 56.3125 -27.164062 56.4375 -26.460938 56.03125 -25.640625 C 55.0625 -23.578125 53.804688 -21.445312 52.265625 -19.25 C 50.722656 -17.0625 48.800781 -15.226562 46.5 -13.75 C 44.195312 -12.269531 41.363281 -11.53125 38 -11.53125 L 36.765625 -11.53125 C 34.222656 -8.03125 31.179688 -5.234375 27.640625 -3.140625 C 24.109375 -1.046875 20.421875 0 16.578125 0 C 11.984375 0 8.175781 -1.539062 5.15625 -4.625 C 2.132812 -7.71875 0.625 -11.941406 0.625 -17.296875 C 0.625 -21.140625 1.328125 -25.070312 2.734375 -29.09375 C 4.140625 -33.113281 6.113281 -36.820312 8.65625 -40.21875 C 11.195312 -43.613281 14.179688 -46.34375 17.609375 -48.40625 C 21.046875 -50.46875 24.820312 -51.5 28.9375 -51.5 C 31.75 -51.5 34.285156 -50.929688 36.546875 -49.796875 C 38.816406 -48.660156 40.617188 -46.785156 41.953125 -44.171875 C 43.296875 -41.566406 43.96875 -38.101562 43.96875 -33.78125 C 43.96875 -30.144531 43.453125 -26.609375 42.421875 -23.171875 L 43.15625 -23.171875 C 44.664062 -23.171875 46.101562 -23.566406 47.46875 -24.359375 C 48.84375 -25.148438 50.148438 -26.4375 51.390625 -28.21875 Z M 22.453125 -21.3125 C 24.171875 -21.3125 25.679688 -21.828125 26.984375 -22.859375 C 28.285156 -23.890625 29.3125 -25.140625 30.0625 -26.609375 C 30.820312 -28.085938 31.203125 -29.550781 31.203125 -31 C 31.203125 -32.507812 30.753906 -33.796875 29.859375 -34.859375 C 28.972656 -35.921875 27.535156 -36.453125 25.546875 -36.453125 C 23.890625 -36.453125 22.425781 -35.972656 21.15625 -35.015625 C 19.894531 -34.054688 18.898438 -32.835938 18.171875 -31.359375 C 17.453125 -29.878906 17.09375 -28.382812 17.09375 -26.875 C 17.09375 -25.363281 17.503906 -24.054688 18.328125 -22.953125 C 19.148438 -21.859375 20.523438 -21.3125 22.453125 -21.3125 Z M 22.453125 -21.3125 "/></g></g></g><g fill="#ff9f1c" fill-opacity="1"><g transform="translate(163.383763, 251.626726)"><g><path d="M 53.859375 -28.21875 C 54.410156 -29.039062 55.128906 -29.332031 56.015625 -29.09375 C 56.910156 -28.851562 57.648438 -28.390625 58.234375 -27.703125 C 58.816406 -27.015625 58.90625 -26.328125 58.5 -25.640625 C 57.8125 -24.546875 56.984375 -22.953125 56.015625 -20.859375 C 55.054688 -18.765625 53.90625 -16.53125 52.5625 -14.15625 C 51.226562 -11.789062 49.664062 -9.523438 47.875 -7.359375 C 46.09375 -5.203125 44.085938 -3.4375 41.859375 -2.0625 C 39.628906 -0.6875 37.109375 0 34.296875 0 C 28.390625 0 25.4375 -3.738281 25.4375 -11.21875 C 25.4375 -12.53125 25.539062 -13.941406 25.75 -15.453125 C 24.644531 -13.046875 23.300781 -10.65625 21.71875 -8.28125 C 20.144531 -5.914062 18.328125 -3.960938 16.265625 -2.421875 C 14.210938 -0.878906 11.847656 -0.109375 9.171875 -0.109375 C 6.421875 -0.109375 4.222656 -1.101562 2.578125 -3.09375 C 0.929688 -5.082031 0.109375 -8.171875 0.109375 -12.359375 C 0.109375 -13.941406 0.226562 -16.140625 0.46875 -18.953125 C 0.707031 -21.765625 1.34375 -24.851562 2.375 -28.21875 C 4.769531 -35.769531 7.1875 -41.535156 9.625 -45.515625 C 12.0625 -49.503906 14.722656 -51.5 17.609375 -51.5 C 19.734375 -51.5 20.796875 -50.125 20.796875 -47.375 C 20.796875 -45.175781 20.398438 -42.941406 19.609375 -40.671875 C 18.828125 -38.410156 18.054688 -36.195312 17.296875 -34.03125 C 16.546875 -31.875 16.171875 -29.765625 16.171875 -27.703125 C 16.171875 -26.265625 16.460938 -25.128906 17.046875 -24.296875 C 17.628906 -23.472656 18.78125 -23.0625 20.5 -23.0625 C 22.351562 -23.0625 24.035156 -23.628906 25.546875 -24.765625 C 27.054688 -25.898438 28.253906 -27.738281 29.140625 -30.28125 L 29.25 -30.6875 C 31.375 -37.414062 33.535156 -42.566406 35.734375 -46.140625 C 37.929688 -49.710938 40.332031 -51.5 42.9375 -51.5 C 43.96875 -51.5 44.757812 -51.1875 45.3125 -50.5625 C 45.863281 -49.945312 46.140625 -48.882812 46.140625 -47.375 C 46.140625 -45.445312 45.742188 -43.367188 44.953125 -41.140625 C 44.160156 -38.910156 43.382812 -36.695312 42.625 -34.5 C 41.875 -32.300781 41.5 -30.34375 41.5 -28.625 C 41.5 -26.707031 42.03125 -25.285156 43.09375 -24.359375 C 44.15625 -23.429688 45.375 -22.96875 46.75 -22.96875 C 48.332031 -22.96875 49.65625 -23.460938 50.71875 -24.453125 C 51.78125 -25.453125 52.828125 -26.707031 53.859375 -28.21875 Z M 53.859375 -28.21875 "/></g></g></g><g fill="#ff9f1c" fill-opacity="1"><g transform="translate(214.870099, 251.626726)"><g><path d="M 6.484375 0 C 4.085938 0 2.234375 -0.71875 0.921875 -2.15625 C -0.378906 -3.601562 -1.03125 -5.390625 -1.03125 -7.515625 C -1.03125 -9.921875 -0.753906 -12.925781 -0.203125 -16.53125 C 0.347656 -20.132812 1.207031 -24.03125 2.375 -28.21875 C 3.539062 -32.269531 4.828125 -36.0625 6.234375 -39.59375 C 7.640625 -43.132812 9.078125 -46.003906 10.546875 -48.203125 C 12.023438 -50.398438 13.421875 -51.5 14.734375 -51.5 C 16.097656 -51.5 17.003906 -51.101562 17.453125 -50.3125 C 17.898438 -49.519531 18.125 -48.609375 18.125 -47.578125 C 18.125 -45.585938 18.601562 -44.351562 19.5625 -43.875 C 20.53125 -43.394531 21.835938 -43.976562 23.484375 -45.625 C 25.398438 -47.476562 27.390625 -48.921875 29.453125 -49.953125 C 31.515625 -50.984375 33.675781 -51.5 35.9375 -51.5 C 39.09375 -51.5 41.425781 -50.570312 42.9375 -48.71875 C 44.445312 -46.863281 45.203125 -44.628906 45.203125 -42.015625 C 45.203125 -40.234375 44.925781 -38.601562 44.375 -37.125 C 43.832031 -35.644531 43.285156 -34.203125 42.734375 -32.796875 C 42.191406 -31.390625 41.921875 -29.828125 41.921875 -28.109375 C 41.921875 -24.679688 43.566406 -22.96875 46.859375 -22.96875 C 48.429688 -22.96875 49.75 -23.460938 50.8125 -24.453125 C 51.882812 -25.453125 52.9375 -26.707031 53.96875 -28.21875 C 54.507812 -29.039062 55.226562 -29.332031 56.125 -29.09375 C 57.019531 -28.851562 57.757812 -28.390625 58.34375 -27.703125 C 58.925781 -27.015625 59.007812 -26.328125 58.59375 -25.640625 C 57.90625 -24.546875 57.082031 -22.953125 56.125 -20.859375 C 55.164062 -18.765625 54.015625 -16.53125 52.671875 -14.15625 C 51.335938 -11.789062 49.773438 -9.523438 47.984375 -7.359375 C 46.203125 -5.203125 44.195312 -3.4375 41.96875 -2.0625 C 39.738281 -0.6875 37.210938 0 34.390625 0 C 31.171875 0 28.90625 -1.0625 27.59375 -3.1875 C 26.289062 -5.320312 25.640625 -7.828125 25.640625 -10.703125 C 25.640625 -13.316406 26 -15.804688 26.71875 -18.171875 C 27.445312 -20.546875 28.171875 -22.707031 28.890625 -24.65625 C 29.609375 -26.613281 29.96875 -28.28125 29.96875 -29.65625 C 29.96875 -30.820312 29.609375 -31.710938 28.890625 -32.328125 C 28.171875 -32.953125 27.226562 -33.265625 26.0625 -33.265625 C 24.0625 -33.265625 22.21875 -32.421875 20.53125 -30.734375 C 18.851562 -29.054688 17.5 -26.878906 16.46875 -24.203125 C 15.445312 -21.523438 14.9375 -18.640625 14.9375 -15.546875 L 14.9375 -10.921875 C 14.9375 -9.203125 14.726562 -7.5 14.3125 -5.8125 C 13.90625 -4.132812 13.097656 -2.742188 11.890625 -1.640625 C 10.691406 -0.546875 8.890625 0 6.484375 0 Z M 6.484375 0 "/></g></g></g><g fill="#ff9f1c" fill-opacity="1"><g transform="translate(266.459421, 251.626726)"><g><path d="M 12.046875 0 C 7.992188 0 5.023438 -1.40625 3.140625 -4.21875 C 1.253906 -7.03125 0.3125 -10.5 0.3125 -14.625 C 0.3125 -18.46875 0.859375 -22.515625 1.953125 -26.765625 C 3.054688 -31.023438 4.722656 -35.023438 6.953125 -38.765625 C 9.179688 -42.515625 11.957031 -45.570312 15.28125 -47.9375 C 18.613281 -50.3125 22.476562 -51.5 26.875 -51.5 C 28.9375 -51.5 30.53125 -51.253906 31.65625 -50.765625 C 32.789062 -50.285156 33.648438 -49.71875 34.234375 -49.0625 C 34.828125 -48.414062 35.328125 -47.832031 35.734375 -47.3125 C 36.148438 -46.800781 36.703125 -46.546875 37.390625 -46.546875 C 37.929688 -46.546875 38.375 -47.160156 38.71875 -48.390625 C 39.0625 -49.628906 39.578125 -51.46875 40.265625 -53.90625 C 40.953125 -56.34375 42.015625 -59.316406 43.453125 -62.828125 C 44.765625 -65.984375 46.050781 -68.363281 47.3125 -69.96875 C 48.582031 -71.582031 49.800781 -72.664062 50.96875 -73.21875 C 52.144531 -73.769531 53.242188 -74.046875 54.265625 -74.046875 C 56.054688 -74.046875 57.242188 -73.171875 57.828125 -71.421875 C 58.410156 -69.671875 58.015625 -67.316406 56.640625 -64.359375 L 45 -34.609375 C 43.28125 -30.828125 42.644531 -27.941406 43.09375 -25.953125 C 43.539062 -23.960938 44.898438 -22.96875 47.171875 -22.96875 C 48.953125 -22.96875 50.492188 -23.429688 51.796875 -24.359375 C 53.109375 -25.285156 54.273438 -26.570312 55.296875 -28.21875 C 55.847656 -29.039062 56.550781 -29.332031 57.40625 -29.09375 C 58.269531 -28.851562 58.992188 -28.390625 59.578125 -27.703125 C 60.160156 -27.015625 60.28125 -26.328125 59.9375 -25.640625 C 58.695312 -23.234375 57.375 -20.570312 55.96875 -17.65625 C 54.5625 -14.738281 53 -11.941406 51.28125 -9.265625 C 49.570312 -6.585938 47.617188 -4.375 45.421875 -2.625 C 43.222656 -0.875 40.679688 0 37.796875 0 C 34.503906 0 32.066406 -1.441406 30.484375 -4.328125 C 28.898438 -7.210938 28.382812 -10.78125 28.9375 -15.03125 L 28.53125 -15.03125 C 26.394531 -10.84375 23.898438 -7.289062 21.046875 -4.375 C 18.203125 -1.457031 15.203125 0 12.046875 0 Z M 21.421875 -21.3125 C 23.140625 -21.3125 24.648438 -21.828125 25.953125 -22.859375 C 27.253906 -23.890625 28.28125 -25.140625 29.03125 -26.609375 C 29.789062 -28.085938 30.171875 -29.550781 30.171875 -31 C 30.171875 -32.507812 29.722656 -33.796875 28.828125 -34.859375 C 27.941406 -35.921875 26.503906 -36.453125 24.515625 -36.453125 C 22.859375 -36.453125 21.394531 -35.972656 20.125 -35.015625 C 18.863281 -34.054688 17.867188 -32.835938 17.140625 -31.359375 C 16.421875 -29.878906 16.0625 -28.382812 16.0625 -26.875 C 16.0625 -25.363281 16.472656 -24.054688 17.296875 -22.953125 C 18.117188 -21.859375 19.492188 -21.3125 21.421875 -21.3125 Z M 21.421875 -21.3125 "/></g></g></g><g fill="#ffffff" fill-opacity="1"><g transform="translate(56.439942, 248.531424)"><g><path d="M 23.375 4.328125 C 18.914062 4.328125 14.882812 3.414062 11.28125 1.59375 C 7.675781 -0.226562 4.828125 -2.941406 2.734375 -6.546875 C 0.640625 -10.148438 -0.40625 -14.59375 -0.40625 -19.875 C -0.40625 -23.925781 0.140625 -27.320312 1.234375 -30.0625 C 2.335938 -32.8125 3.742188 -35.023438 5.453125 -36.703125 C 7.171875 -38.390625 8.972656 -39.59375 10.859375 -40.3125 C 12.753906 -41.039062 14.457031 -41.40625 15.96875 -41.40625 C 17.269531 -41.40625 18.296875 -41.160156 19.046875 -40.671875 C 19.804688 -40.191406 20.1875 -39.578125 20.1875 -38.828125 C 20.1875 -38.066406 19.894531 -37.410156 19.3125 -36.859375 C 18.726562 -36.316406 18.125 -35.613281 17.5 -34.75 C 16.882812 -33.894531 16.578125 -32.507812 16.578125 -30.59375 C 16.578125 -27.84375 17.332031 -25.644531 18.84375 -24 C 20.351562 -22.351562 22.445312 -21.53125 25.125 -21.53125 C 27.59375 -21.53125 29.617188 -22.316406 31.203125 -23.890625 C 32.785156 -25.472656 33.578125 -27.535156 33.578125 -30.078125 C 33.578125 -32.066406 33.039062 -34.054688 31.96875 -36.046875 C 30.90625 -38.035156 29.703125 -40.144531 28.359375 -42.375 C 27.023438 -44.601562 25.828125 -47.003906 24.765625 -49.578125 C 23.703125 -52.160156 23.171875 -54.992188 23.171875 -58.078125 C 23.171875 -61.242188 23.875 -64.234375 25.28125 -67.046875 C 26.6875 -69.859375 28.863281 -72.15625 31.8125 -73.9375 C 34.769531 -75.726562 38.515625 -76.625 43.046875 -76.625 C 47.097656 -76.625 50.34375 -75.914062 52.78125 -74.5 C 55.21875 -73.09375 56.984375 -71.273438 58.078125 -69.046875 C 59.179688 -66.816406 59.734375 -64.46875 59.734375 -62 C 59.734375 -58.90625 58.90625 -56.019531 57.25 -53.34375 C 55.601562 -50.664062 53.375 -48.609375 50.5625 -47.171875 C 50.15625 -46.617188 49.503906 -46.515625 48.609375 -46.859375 C 47.710938 -47.203125 46.972656 -47.765625 46.390625 -48.546875 C 45.804688 -49.335938 45.753906 -50.046875 46.234375 -50.671875 C 46.710938 -51.285156 47.085938 -52.125 47.359375 -53.1875 C 47.640625 -54.25 47.691406 -55.347656 47.515625 -56.484375 C 47.347656 -57.617188 46.90625 -58.5625 46.1875 -59.3125 C 45.46875 -60.070312 44.382812 -60.453125 42.9375 -60.453125 C 41.226562 -60.453125 39.738281 -59.898438 38.46875 -58.796875 C 37.195312 -57.703125 36.5625 -55.851562 36.5625 -53.25 C 36.488281 -50.976562 37.085938 -48.675781 38.359375 -46.34375 C 39.628906 -44.007812 41.125 -41.585938 42.84375 -39.078125 C 44.5625 -36.578125 46.070312 -33.914062 47.375 -31.09375 C 48.675781 -28.28125 49.328125 -25.257812 49.328125 -22.03125 C 49.328125 -16.957031 48.210938 -12.425781 45.984375 -8.4375 C 43.753906 -4.457031 40.695312 -1.335938 36.8125 0.921875 C 32.9375 3.191406 28.457031 4.328125 23.375 4.328125 Z M 23.375 4.328125 "/></g></g></g><g fill="#ffffff" fill-opacity="1"><g transform="translate(109.779787, 248.531424)"><g><path d="M 51.390625 -28.21875 C 51.796875 -28.832031 52.445312 -29.050781 53.34375 -28.875 C 54.238281 -28.707031 55.007812 -28.332031 55.65625 -27.75 C 56.3125 -27.164062 56.4375 -26.460938 56.03125 -25.640625 C 55.0625 -23.578125 53.804688 -21.445312 52.265625 -19.25 C 50.722656 -17.0625 48.800781 -15.226562 46.5 -13.75 C 44.195312 -12.269531 41.363281 -11.53125 38 -11.53125 L 36.765625 -11.53125 C 34.222656 -8.03125 31.179688 -5.234375 27.640625 -3.140625 C 24.109375 -1.046875 20.421875 0 16.578125 0 C 11.984375 0 8.175781 -1.539062 5.15625 -4.625 C 2.132812 -7.71875 0.625 -11.941406 0.625 -17.296875 C 0.625 -21.140625 1.328125 -25.070312 2.734375 -29.09375 C 4.140625 -33.113281 6.113281 -36.820312 8.65625 -40.21875 C 11.195312 -43.613281 14.179688 -46.34375 17.609375 -48.40625 C 21.046875 -50.46875 24.820312 -51.5 28.9375 -51.5 C 31.75 -51.5 34.285156 -50.929688 36.546875 -49.796875 C 38.816406 -48.660156 40.617188 -46.785156 41.953125 -44.171875 C 43.296875 -41.566406 43.96875 -38.101562 43.96875 -33.78125 C 43.96875 -30.144531 43.453125 -26.609375 42.421875 -23.171875 L 43.15625 -23.171875 C 44.664062 -23.171875 46.101562 -23.566406 47.46875 -24.359375 C 48.84375 -25.148438 50.148438 -26.4375 51.390625 -28.21875 Z M 22.453125 -21.3125 C 24.171875 -21.3125 25.679688 -21.828125 26.984375 -22.859375 C 28.285156 -23.890625 29.3125 -25.140625 30.0625 -26.609375 C 30.820312 -28.085938 31.203125 -29.550781 31.203125 -31 C 31.203125 -32.507812 30.753906 -33.796875 29.859375 -34.859375 C 28.972656 -35.921875 27.535156 -36.453125 25.546875 -36.453125 C 23.890625 -36.453125 22.425781 -35.972656 21.15625 -35.015625 C 19.894531 -34.054688 18.898438 -32.835938 18.171875 -31.359375 C 17.453125 -29.878906 17.09375 -28.382812 17.09375 -26.875 C 17.09375 -25.363281 17.503906 -24.054688 18.328125 -22.953125 C 19.148438 -21.859375 20.523438 -21.3125 22.453125 -21.3125 Z M 22.453125 -21.3125 "/></g></g></g><g fill="#ffffff" fill-opacity="1"><g transform="translate(158.794783, 248.531424)"><g><path d="M 53.859375 -28.21875 C 54.410156 -29.039062 55.128906 -29.332031 56.015625 -29.09375 C 56.910156 -28.851562 57.648438 -28.390625 58.234375 -27.703125 C 58.816406 -27.015625 58.90625 -26.328125 58.5 -25.640625 C 57.8125 -24.546875 56.984375 -22.953125 56.015625 -20.859375 C 55.054688 -18.765625 53.90625 -16.53125 52.5625 -14.15625 C 51.226562 -11.789062 49.664062 -9.523438 47.875 -7.359375 C 46.09375 -5.203125 44.085938 -3.4375 41.859375 -2.0625 C 39.628906 -0.6875 37.109375 0 34.296875 0 C 28.390625 0 25.4375 -3.738281 25.4375 -11.21875 C 25.4375 -12.53125 25.539062 -13.941406 25.75 -15.453125 C 24.644531 -13.046875 23.300781 -10.65625 21.71875 -8.28125 C 20.144531 -5.914062 18.328125 -3.960938 16.265625 -2.421875 C 14.210938 -0.878906 11.847656 -0.109375 9.171875 -0.109375 C 6.421875 -0.109375 4.222656 -1.101562 2.578125 -3.09375 C 0.929688 -5.082031 0.109375 -8.171875 0.109375 -12.359375 C 0.109375 -13.941406 0.226562 -16.140625 0.46875 -18.953125 C 0.707031 -21.765625 1.34375 -24.851562 2.375 -28.21875 C 4.769531 -35.769531 7.1875 -41.535156 9.625 -45.515625 C 12.0625 -49.503906 14.722656 -51.5 17.609375 -51.5 C 19.734375 -51.5 20.796875 -50.125 20.796875 -47.375 C 20.796875 -45.175781 20.398438 -42.941406 19.609375 -40.671875 C 18.828125 -38.410156 18.054688 -36.195312 17.296875 -34.03125 C 16.546875 -31.875 16.171875 -29.765625 16.171875 -27.703125 C 16.171875 -26.265625 16.460938 -25.128906 17.046875 -24.296875 C 17.628906 -23.472656 18.78125 -23.0625 20.5 -23.0625 C 22.351562 -23.0625 24.035156 -23.628906 25.546875 -24.765625 C 27.054688 -25.898438 28.253906 -27.738281 29.140625 -30.28125 L 29.25 -30.6875 C 31.375 -37.414062 33.535156 -42.566406 35.734375 -46.140625 C 37.929688 -49.710938 40.332031 -51.5 42.9375 -51.5 C 43.96875 -51.5 44.757812 -51.1875 45.3125 -50.5625 C 45.863281 -49.945312 46.140625 -48.882812 46.140625 -47.375 C 46.140625 -45.445312 45.742188 -43.367188 44.953125 -41.140625 C 44.160156 -38.910156 43.382812 -36.695312 42.625 -34.5 C 41.875 -32.300781 41.5 -30.34375 41.5 -28.625 C 41.5 -26.707031 42.03125 -25.285156 43.09375 -24.359375 C 44.15625 -23.429688 45.375 -22.96875 46.75 -22.96875 C 48.332031 -22.96875 49.65625 -23.460938 50.71875 -24.453125 C 51.78125 -25.453125 52.828125 -26.707031 53.859375 -28.21875 Z M 53.859375 -28.21875 "/></g></g></g><g fill="#ffffff" fill-opacity="1"><g transform="translate(210.28112, 248.531424)"><g><path d="M 6.484375 0 C 4.085938 0 2.234375 -0.71875 0.921875 -2.15625 C -0.378906 -3.601562 -1.03125 -5.390625 -1.03125 -7.515625 C -1.03125 -9.921875 -0.753906 -12.925781 -0.203125 -16.53125 C 0.347656 -20.132812 1.207031 -24.03125 2.375 -28.21875 C 3.539062 -32.269531 4.828125 -36.0625 6.234375 -39.59375 C 7.640625 -43.132812 9.078125 -46.003906 10.546875 -48.203125 C 12.023438 -50.398438 13.421875 -51.5 14.734375 -51.5 C 16.097656 -51.5 17.003906 -51.101562 17.453125 -50.3125 C 17.898438 -49.519531 18.125 -48.609375 18.125 -47.578125 C 18.125 -45.585938 18.601562 -44.351562 19.5625 -43.875 C 20.53125 -43.394531 21.835938 -43.976562 23.484375 -45.625 C 25.398438 -47.476562 27.390625 -48.921875 29.453125 -49.953125 C 31.515625 -50.984375 33.675781 -51.5 35.9375 -51.5 C 39.09375 -51.5 41.425781 -50.570312 42.9375 -48.71875 C 44.445312 -46.863281 45.203125 -44.628906 45.203125 -42.015625 C 45.203125 -40.234375 44.925781 -38.601562 44.375 -37.125 C 43.832031 -35.644531 43.285156 -34.203125 42.734375 -32.796875 C 42.191406 -31.390625 41.921875 -29.828125 41.921875 -28.109375 C 41.921875 -24.679688 43.566406 -22.96875 46.859375 -22.96875 C 48.429688 -22.96875 49.75 -23.460938 50.8125 -24.453125 C 51.882812 -25.453125 52.9375 -26.707031 53.96875 -28.21875 C 54.507812 -29.039062 55.226562 -29.332031 56.125 -29.09375 C 57.019531 -28.851562 57.757812 -28.390625 58.34375 -27.703125 C 58.925781 -27.015625 59.007812 -26.328125 58.59375 -25.640625 C 57.90625 -24.546875 57.082031 -22.953125 56.125 -20.859375 C 55.164062 -18.765625 54.015625 -16.53125 52.671875 -14.15625 C 51.335938 -11.789062 49.773438 -9.523438 47.984375 -7.359375 C 46.203125 -5.203125 44.195312 -3.4375 41.96875 -2.0625 C 39.738281 -0.6875 37.210938 0 34.390625 0 C 31.171875 0 28.90625 -1.0625 27.59375 -3.1875 C 26.289062 -5.320312 25.640625 -7.828125 25.640625 -10.703125 C 25.640625 -13.316406 26 -15.804688 26.71875 -18.171875 C 27.445312 -20.546875 28.171875 -22.707031 28.890625 -24.65625 C 29.609375 -26.613281 29.96875 -28.28125 29.96875 -29.65625 C 29.96875 -30.820312 29.609375 -31.710938 28.890625 -32.328125 C 28.171875 -32.953125 27.226562 -33.265625 26.0625 -33.265625 C 24.0625 -33.265625 22.21875 -32.421875 20.53125 -30.734375 C 18.851562 -29.054688 17.5 -26.878906 16.46875 -24.203125 C 15.445312 -21.523438 14.9375 -18.640625 14.9375 -15.546875 L 14.9375 -10.921875 C 14.9375 -9.203125 14.726562 -7.5 14.3125 -5.8125 C 13.90625 -4.132812 13.097656 -2.742188 11.890625 -1.640625 C 10.691406 -0.546875 8.890625 0 6.484375 0 Z M 6.484375 0 "/></g></g></g><g fill="#ffffff" fill-opacity="1"><g transform="translate(261.870442, 248.531424)"><g><path d="M 12.046875 0 C 7.992188 0 5.023438 -1.40625 3.140625 -4.21875 C 1.253906 -7.03125 0.3125 -10.5 0.3125 -14.625 C 0.3125 -18.46875 0.859375 -22.515625 1.953125 -26.765625 C 3.054688 -31.023438 4.722656 -35.023438 6.953125 -38.765625 C 9.179688 -42.515625 11.957031 -45.570312 15.28125 -47.9375 C 18.613281 -50.3125 22.476562 -51.5 26.875 -51.5 C 28.9375 -51.5 30.53125 -51.253906 31.65625 -50.765625 C 32.789062 -50.285156 33.648438 -49.71875 34.234375 -49.0625 C 34.828125 -48.414062 35.328125 -47.832031 35.734375 -47.3125 C 36.148438 -46.800781 36.703125 -46.546875 37.390625 -46.546875 C 37.929688 -46.546875 38.375 -47.160156 38.71875 -48.390625 C 39.0625 -49.628906 39.578125 -51.46875 40.265625 -53.90625 C 40.953125 -56.34375 42.015625 -59.316406 43.453125 -62.828125 C 44.765625 -65.984375 46.050781 -68.363281 47.3125 -69.96875 C 48.582031 -71.582031 49.800781 -72.664062 50.96875 -73.21875 C 52.144531 -73.769531 53.242188 -74.046875 54.265625 -74.046875 C 56.054688 -74.046875 57.242188 -73.171875 57.828125 -71.421875 C 58.410156 -69.671875 58.015625 -67.316406 56.640625 -64.359375 L 45 -34.609375 C 43.28125 -30.828125 42.644531 -27.941406 43.09375 -25.953125 C 43.539062 -23.960938 44.898438 -22.96875 47.171875 -22.96875 C 48.953125 -22.96875 50.492188 -23.429688 51.796875 -24.359375 C 53.109375 -25.285156 54.273438 -26.570312 55.296875 -28.21875 C 55.847656 -29.039062 56.550781 -29.332031 57.40625 -29.09375 C 58.269531 -28.851562 58.992188 -28.390625 59.578125 -27.703125 C 60.160156 -27.015625 60.28125 -26.328125 59.9375 -25.640625 C 58.695312 -23.234375 57.375 -20.570312 55.96875 -17.65625 C 54.5625 -14.738281 53 -11.941406 51.28125 -9.265625 C 49.570312 -6.585938 47.617188 -4.375 45.421875 -2.625 C 43.222656 -0.875 40.679688 0 37.796875 0 C 34.503906 0 32.066406 -1.441406 30.484375 -4.328125 C 28.898438 -7.210938 28.382812 -10.78125 28.9375 -15.03125 L 28.53125 -15.03125 C 26.394531 -10.84375 23.898438 -7.289062 21.046875 -4.375 C 18.203125 -1.457031 15.203125 0 12.046875 0 Z M 21.421875 -21.3125 C 23.140625 -21.3125 24.648438 -21.828125 25.953125 -22.859375 C 27.253906 -23.890625 28.28125 -25.140625 29.03125 -26.609375 C 29.789062 -28.085938 30.171875 -29.550781 30.171875 -31 C 30.171875 -32.507812 29.722656 -33.796875 28.828125 -34.859375 C 27.941406 -35.921875 26.503906 -36.453125 24.515625 -36.453125 C 22.859375 -36.453125 21.394531 -35.972656 20.125 -35.015625 C 18.863281 -34.054688 17.867188 -32.835938 17.140625 -31.359375 C 16.421875 -29.878906 16.0625 -28.382812 16.0625 -26.875 C 16.0625 -25.363281 16.472656 -24.054688 17.296875 -22.953125 C 18.117188 -21.859375 19.492188 -21.3125 21.421875 -21.3125 Z M 21.421875 -21.3125 "/></g></g></g></svg>